<svg width="30" height="30" viewBox="0 0 30 30" fill="none" xmlns="http://www.w3.org/2000/svg">
<path d="M23.0224 5.75H21.1567V5C21.1567 4.25 20.6592 3.75 19.9129 3.75C19.1667 3.75 18.6692 4.25 18.6692 5V5.75H13.9428C13.1965 5.75 12.699 6.25 12.699 7C12.699 7.75 13.1965 8.25 13.9428 8.25H18.7935V9C18.7935 9.75 19.291 10.25 20.0373 10.25C20.7836 10.25 21.2811 9.75 21.2811 9V8.25H23.1468C24.0174 8.25 24.8881 9 24.8881 10V11.75H4.98756V10C4.98756 9 5.85821 8.25 6.85323 8.25H8.71891V9C8.71891 9.75 9.21642 10.25 9.96269 10.25C10.709 10.25 11.2065 9.75 11.2065 9V7V5C11.2065 4.25 10.709 3.75 9.96269 3.75C9.21642 3.75 8.71891 4.25 8.71891 5V5.75H6.85323C4.36567 5.75 2.5 7.625 2.5 10V22C2.5 24.375 4.36567 26.25 6.85323 26.25H23.1468C25.51 26.25 27.5 24.375 27.5 22V10C27.3756 7.625 25.5099 5.75 23.0224 5.75ZM23.0224 23.75H6.85323C5.85821 23.75 4.98756 23 4.98756 22V14.25H24.8881V22C24.8881 23 24.0174 23.75 23.0224 23.75Z" fill="#444444"/>
</svg>
