<svg width="30" height="30" viewBox="0 0 30 30" fill="none" xmlns="http://www.w3.org/2000/svg">
<path fill-rule="evenodd" clip-rule="evenodd" d="M13.8243 1.29214C20.4922 0.736046 26.1092 5.75295 26.2497 12.2216L26.25 12.2488C26.25 14.5099 25.5417 16.6232 24.2864 18.4379L24.2739 18.4556L17.9293 27.2951C17.9167 27.3127 17.9037 27.3299 17.8902 27.3467C16.4318 29.1711 13.5637 29.2833 12.1623 27.2897L5.8157 18.4473C4.16133 16.1018 3.29198 13.1405 3.99502 10.0065C4.8619 5.30734 8.95927 1.84799 13.7861 1.29592C13.7988 1.29446 13.8115 1.29321 13.8243 1.29214ZM14.0512 3.78192C10.1878 4.23163 7.08542 6.98185 6.44984 10.4802C6.4466 10.4981 6.44296 10.5159 6.43894 10.5336C5.90923 12.8661 6.53115 15.1221 7.85577 17.0022L14.2061 25.8497C14.5445 26.3335 15.3885 26.4468 15.9201 25.807L22.2363 17.007C23.2138 15.5906 23.7472 13.9767 23.75 12.2624C23.6343 7.28953 19.3124 3.35353 14.0512 3.78192Z" fill="#444444"/>
<path fill-rule="evenodd" clip-rule="evenodd" d="M15 9.87503C13.6883 9.87503 12.625 10.9384 12.625 12.25C12.625 13.5617 13.6883 14.625 15 14.625C16.3117 14.625 17.375 13.5617 17.375 12.25C17.375 10.9384 16.3117 9.87503 15 9.87503ZM10.125 12.25C10.125 9.55764 12.3076 7.37503 15 7.37503C17.6924 7.37503 19.875 9.55764 19.875 12.25C19.875 14.9424 17.6924 17.125 15 17.125C12.3076 17.125 10.125 14.9424 10.125 12.25Z" fill="#444444"/>
<path fill-rule="evenodd" clip-rule="evenodd" d="M15 9.87503C13.6883 9.87503 12.625 10.9384 12.625 12.25C12.625 13.5617 13.6883 14.625 15 14.625C16.3117 14.625 17.375 13.5617 17.375 12.25C17.375 10.9384 16.3117 9.87503 15 9.87503ZM10.125 12.25C10.125 9.55764 12.3076 7.37503 15 7.37503C17.6924 7.37503 19.875 9.55764 19.875 12.25C19.875 14.9424 17.6924 17.125 15 17.125C12.3076 17.125 10.125 14.9424 10.125 12.25Z" fill="#444444"/>
<path fill-rule="evenodd" clip-rule="evenodd" d="M15 9.87503C13.6883 9.87503 12.625 10.9384 12.625 12.25C12.625 13.5617 13.6883 14.625 15 14.625C16.3117 14.625 17.375 13.5617 17.375 12.25C17.375 10.9384 16.3117 9.87503 15 9.87503ZM10.125 12.25C10.125 9.55764 12.3076 7.37503 15 7.37503C17.6924 7.37503 19.875 9.55764 19.875 12.25C19.875 14.9424 17.6924 17.125 15 17.125C12.3076 17.125 10.125 14.9424 10.125 12.25Z" fill="#444444"/>
</svg>
