<svg width="30" height="30" viewBox="0 0 30 30" fill="none" xmlns="http://www.w3.org/2000/svg">
<path fill-rule="evenodd" clip-rule="evenodd" d="M7.0216 6.25C5.30755 6.25 3.75 7.78451 3.75 9.96552V20.0345C3.75 22.2155 5.30755 23.75 7.0216 23.75H23.0984C24.8178 23.75 26.3426 22.2204 26.2457 20.0913C26.2448 20.0724 26.2444 20.0534 26.2444 20.0345V9.96552C26.2444 7.78451 24.6869 6.25 22.9728 6.25H7.0216ZM1.25 9.96552C1.25 6.62928 3.71165 3.75 7.0216 3.75H22.9728C26.2828 3.75 28.7444 6.62928 28.7444 9.96552V20.0076C28.8827 23.3827 26.3932 26.25 23.0984 26.25H7.0216C3.71165 26.25 1.25 23.3707 1.25 20.0345V9.96552Z" fill="#444444"/>
<path fill-rule="evenodd" clip-rule="evenodd" d="M6.41247 9.3837C6.75285 8.78308 7.51567 8.57212 8.11628 8.9125L13.9648 12.2269C14.6418 12.591 15.3581 12.591 16.0352 12.2269L21.8837 8.9125C22.4843 8.57212 23.2471 8.78308 23.5875 9.3837C23.9279 9.98431 23.7169 10.7471 23.1163 11.0875L17.2569 14.4081L17.2369 14.4192C15.8103 15.1936 14.1896 15.1936 12.763 14.4192L12.743 14.4081L6.88367 11.0875C6.28305 10.7471 6.07209 9.98431 6.41247 9.3837Z" fill="#444444"/>
</svg>
