<svg width="48" height="48" viewBox="0 0 48 48" fill="none" xmlns="http://www.w3.org/2000/svg">
<path fill-rule="evenodd" clip-rule="evenodd" d="M24 8C15.1634 8 8 15.1634 8 24C8 32.8366 15.1634 40 24 40C32.8366 40 40 32.8366 40 24C40 15.1634 32.8366 8 24 8ZM4 24C4 12.9543 12.9543 4 24 4C35.0457 4 44 12.9543 44 24C44 35.0457 35.0457 44 24 44C12.9543 44 4 35.0457 4 24Z" fill="#444444"/>
<path d="M14.6 27.2C16.3673 27.2 17.8 25.7673 17.8 24C17.8 22.2327 16.3673 20.8 14.6 20.8C12.8327 20.8 11.4 22.2327 11.4 24C11.4 25.7673 12.8327 27.2 14.6 27.2Z" fill="#444444"/>
<path d="M24 27.2C25.7673 27.2 27.2 25.7673 27.2 24C27.2 22.2327 25.7673 20.8 24 20.8C22.2327 20.8 20.8 22.2327 20.8 24C20.8 25.7673 22.2327 27.2 24 27.2Z" fill="#444444"/>
<path d="M33.4 27.2C35.1673 27.2 36.6 25.7673 36.6 24C36.6 22.2327 35.1673 20.8 33.4 20.8C31.6327 20.8 30.2 22.2327 30.2 24C30.2 25.7673 31.6327 27.2 33.4 27.2Z" fill="#444444"/>
</svg>
