<svg width="48" height="48" viewBox="0 0 48 48" fill="none" xmlns="http://www.w3.org/2000/svg">
<path d="M14.9506 44C13.9513 44 12.952 43.6 11.9527 43C10.3538 41.8 9.35453 39.8 9.75425 37.8L10.9534 30L5.55722 24.4C4.15821 23 3.55863 20.8 4.35807 18.8C4.95764 16.8 6.55651 15.6 8.5551 15.2L16.1497 14L19.5473 7C20.3467 5.2 22.1455 4 24.1441 4C26.1426 4 27.9414 5.2 28.9407 7L32.1384 14L39.5332 15.2C41.5317 15.4 43.1306 16.8 43.7302 18.8C44.3298 20.8 43.9301 22.8 42.531 24.4L37.1349 30L38.334 37.8C38.7337 39.8 37.9343 42 36.1356 43C34.5367 44.2 32.5381 44.2 30.7394 43.4L24.1441 39.6L17.5487 43.2C16.7493 43.8 15.9499 44 14.9506 44ZM24.1441 8C23.9442 8 23.3446 8 23.1448 8.8L19.3475 16.8C18.9477 17.4 18.3482 17.8 17.7486 17.8L9.15467 19.2C8.5551 19.2 8.35524 19.8 8.15538 20C8.15538 20.2 7.95552 20.8 8.5551 21.4L14.7507 27.6C15.1504 28 15.3503 28.6 15.3503 29.4L13.9513 38.2C13.7514 39 14.351 39.4 14.5508 39.6C14.7507 39.8 15.1504 40 15.75 39.6L23.3446 35.4C23.9442 35 24.7436 35 25.3432 35.4L32.9378 39.6C33.5374 39.8 33.9371 39.6 34.137 39.6C34.3368 39.4 34.7366 39 34.7366 38.2L33.3376 29.4C33.1377 28.8 33.3375 28.2 33.9371 27.6L40.1327 21.4C40.3326 21 40.1327 20.2 40.1327 20C40.1327 19.8 39.733 19.2 39.1334 19.2L30.5395 18C29.94 18 29.3404 17.4 28.9407 16.8L25.1434 8.8C24.9435 8 24.3439 8 24.1441 8Z" fill="#444444"/>
</svg>
