<svg width="48" height="48" viewBox="0 0 48 48" fill="none" xmlns="http://www.w3.org/2000/svg">
<path d="M29.8 26.8001C31 25.4001 31.8 23.6001 31.8 21.8001C31.8 17.4001 28.2 14.0001 24 14.0001C19.8 14.0001 16.2 17.4001 16.2 21.6001C16.2 23.6001 17 25.4001 18.2 26.6001C15.6 28.0001 13.6 30.0001 12.4 32.8001C11.8 34.2001 12 36.0001 12.8 37.4001C13.8 38.8001 15.4 39.6001 17 39.6001H30.8C32.4 39.6001 34 38.8001 35 37.4001C36 36.0001 36 34.4001 35.4 32.8001C34.4 30.2001 32.4 28.0001 29.8 26.8001ZM20.2 21.6001C20.2 19.6001 22 18.0001 24 18.0001C26 18.0001 27.8 19.6001 27.8 21.8001C27.8 24.0001 26 25.4001 24 25.4001C22 25.4001 20.2 23.8001 20.2 21.6001ZM31.8 35.2001C31.6 35.4001 31.2 35.6001 31 35.6001H17C16.6 35.6001 16.4 35.4001 16.2 35.2001C16 35.2001 16 34.8001 16 34.4001C17.4 31.2001 20.4 29.2001 24 29.2001C27.6 29.2001 30.6 31.2001 32 34.4001C32 34.8001 32 35.2001 31.8 35.2001Z" fill="#444444"/>
<path d="M14.6 25.2001C14.6 24.2001 13.8 23.2001 12.6 23.2001H6C6.8 21.2001 8.8 20.0001 11 20.0001C14.4 20.0001 17 17.4001 17 14.0001C17 10.6001 14.2 8.00006 11 8.00006C7.8 8.00006 5 10.6001 5 14.0001C5 15.2001 5.4 16.4001 6.2 17.4001C4.4 18.4001 3 19.8001 2.4 21.6001C1.8 22.8001 2 24.2001 2.6 25.4001C3.4 26.6001 4.6 27.2001 6 27.2001H12.4C13.6 27.2001 14.6 26.4001 14.6 25.2001ZM9 14.0001C9 12.8001 10 12.0001 11 12.0001C12 12.0001 13 13.0001 13 14.0001C13 15.2001 12 16.0001 11 16.0001C10 16.0001 9 15.0001 9 14.0001Z" fill="#444444"/>
<path d="M45.6 21.6C44.8 19.8 43.4 18.2 41.8 17.2C42.4 16.2 43 15 43 13.8C43 10.6 40.2 7.80005 37 7.80005C33.8 7.80005 31 10.4 31 13.8C31 17.2 33.8 19.8 37 19.8C39.2 19.8 41.2 21 41.8 23.2H35.4C34.2 23.2 33.4 24 33.4 25.2001C33.4 26.2001 34.2 27.2001 35.4 27.2001H41.8C43.2 27.2001 44.4 26.6 45.2 25.4C46 24.2 46.2 22.8 45.6 21.6ZM37 12C38.2 12 39 13 39 14C39 15.2 38 16 37 16C36 16 35 15 35 14C35 12.8 35.8 12 37 12Z" fill="#444444"/>
</svg>
